<svg width="35" height="49" viewBox="0 0 35 49" fill="none" xmlns="http://www.w3.org/2000/svg">
<path d="M33.8874 8.77357L33.892 8.67661C33.9105 8.27406 33.7784 7.8838 33.5384 7.63153C33.327 7.4105 33.0455 7.29832 32.7015 7.29832H26.9217L26.9187 7.03879C26.9151 6.69076 26.9125 6.34274 26.9121 5.99371C26.9121 5.87649 26.8968 5.76109 26.8639 5.63057L26.8536 5.59247L26.8562 5.55306C26.8761 5.15001 26.7451 4.75854 26.504 4.50536C26.2932 4.28322 26.0112 4.17074 25.6663 4.17074C24.5741 4.17074 23.4819 4.1658 22.3902 4.16127L22.1338 4.16026L22.1292 3.90385C22.1082 2.7725 22.0349 1.82589 21.8994 0.924838C21.8124 0.351652 21.2075 0.00876863 20.6716 0.00876863L20.5979 0.00927257L20.5349 0.00262051L15.4282 0C15.0493 0 14.737 0.142011 14.5236 0.411218C14.2674 0.736262 14.1735 1.21682 14.28 1.66594L14.2985 1.74345L14.2701 1.81843C14.2125 1.97304 14.1826 2.12806 14.1826 2.27904V4.04425L13.9121 4.03589C12.801 4.00192 11.6901 3.96322 10.579 3.9092L10.5244 3.90819C10.419 3.90819 10.3144 3.9228 10.1954 3.95425L10.1608 3.96372L10.125 3.96322H10.1245C9.50345 3.96322 8.85266 4.35448 8.84419 5.21411C8.83956 5.65556 8.82222 6.0952 8.79561 6.53323L8.7808 6.77896L8.53467 6.77946C6.62543 6.7849 4.58304 6.81988 2.58037 7.03637C2.51385 7.04383 2.45368 7.06046 2.39331 7.07628L2.30784 7.08939C1.68164 7.08939 1.05604 7.47551 1.05604 8.33917V13.2919C1.05604 13.5701 1.12558 13.8154 1.26256 14.0199L1.30711 14.0859V14.1656C1.30549 25.2914 1.26669 35.3386 0.804471 45.6238C0.798625 45.7486 0.811627 45.873 0.844686 46.0148L0.85668 46.0674L0.846903 46.1212C0.785019 46.4646 0.84005 46.7784 1.00303 47.0052C1.14967 47.2109 1.38028 47.3378 1.68758 47.3839C11.7563 48.8767 21.6898 48.9991 32.7013 49.0001C33.4976 49.0001 33.7582 48.3942 33.833 48.1336L33.8498 48.0759L33.8907 48.0308C34.0944 47.8062 34.1978 47.519 34.1978 47.1771V9.64317C34.1978 9.33123 34.1134 9.06454 33.9461 8.85017L33.8874 8.77357ZM16.6745 2.60358H19.6061L19.6178 2.85253C19.6353 3.19208 19.645 3.53174 19.647 3.8718L19.6492 4.13819L18.7335 4.12871C18.1326 4.12287 17.5321 4.11722 16.9319 4.10674L16.6745 4.1018V2.60358ZM10.93 12.1047C11.0235 11.3984 11.1125 9.68822 11.1831 8.31407C11.2157 7.68152 11.2445 7.12899 11.2676 6.79478L11.2855 6.54019L11.5401 6.55117C15.8868 6.73773 20.1773 6.76817 24.1663 6.7723H24.4252L24.4278 7.03123C24.4579 9.83185 24.5121 11.7861 24.5838 12.5341L24.6119 12.8327L24.312 12.8206C22.0303 12.7272 19.7083 12.6623 17.4631 12.6001C15.3685 12.5413 13.2742 12.4827 11.1799 12.4013L10.8927 12.3903L10.93 12.1047ZM31.7076 46.3949H31.4456C21.5606 46.3884 12.6386 46.2818 3.5551 45.0341L3.31915 45.0018L3.32913 44.7633C3.76212 34.6256 3.7982 24.5125 3.79871 13.2918C3.79871 13.0137 3.72916 12.7677 3.59118 12.5622L3.54714 12.4962V9.54873L3.78974 9.53079C5.40699 9.41146 7.00389 9.39009 8.21396 9.38415L8.5123 9.38314L8.4749 9.68026C8.46341 9.77269 8.4488 10.4638 8.43781 11.0194C8.41887 11.9302 8.40838 12.3716 8.39327 12.4802C8.36021 12.7217 8.36918 12.9602 8.42038 13.187L8.43136 13.2389L8.42189 13.2914C8.34327 13.7237 8.45132 14.1886 8.70329 14.5051C8.91827 14.7756 9.2279 14.9276 9.5984 14.9443C12.2329 15.0648 14.9148 15.1362 17.5076 15.2047C20.1032 15.2733 22.7871 15.3447 25.4265 15.4657L25.4951 15.4674C25.8697 15.4674 26.1139 15.3247 26.2766 15.1466C26.5013 15.0537 26.6957 14.8886 26.8104 14.6671C26.8211 14.645 26.8309 14.6225 26.8411 14.5995C26.8632 14.5465 26.8847 14.493 26.897 14.4355C26.921 14.3289 26.9328 14.2215 26.9502 14.1146C27.1134 13.8976 27.1963 13.6529 27.1657 13.4144C27.1411 13.2204 27.1221 12.5032 27.0987 11.51C27.0838 10.903 27.0694 10.3302 27.0577 10.1865L27.0331 9.9019H31.7074V46.3949H31.7076Z" fill="#00B4FF"/>
<path d="M26.1304 19.7418C26.0133 19.7973 25.9135 19.867 25.8249 19.9549C21.165 24.6126 17.1953 28.4834 13.0308 32.1777L10.9099 29.6032C10.6633 29.3033 10.3843 29.2404 10.1941 29.2404C9.97866 29.2404 9.75964 29.3228 9.57409 29.4722L9.54103 29.4907C8.3483 30.2584 7.23458 30.9007 6.13497 31.4554C5.80439 31.6229 5.60886 31.911 5.59102 32.2524C5.44638 32.6311 5.53901 33.0267 5.84561 33.32C6.83001 34.2617 7.74639 35.3038 8.63282 36.312C9.60604 37.4186 10.6122 38.5635 11.7185 39.5876C11.7605 39.6265 11.8034 39.6608 11.8469 39.6909C12.0344 39.9315 12.2955 40.0675 12.57 40.0675C12.7699 40.0675 12.9631 39.998 13.145 39.8608C16.235 37.529 18.9856 34.9034 21.0368 32.8767C21.63 32.2903 22.2257 31.7057 22.8209 31.1196C24.9489 29.029 27.1497 26.8666 29.2323 24.6704C29.3556 24.5402 29.441 24.3897 29.487 24.2231C29.6862 23.9001 29.6739 23.526 29.4498 23.1885C28.7358 22.1127 28.1129 21.1037 27.5469 20.1049C27.3605 19.7748 27.0467 19.5854 26.6885 19.5854C26.4882 19.5859 26.2871 19.6442 26.1304 19.7418ZM22.6543 28.3053C21.839 29.1088 21.0252 29.9114 20.2176 30.7199C17.9339 33.0052 15.4411 35.4141 12.6715 37.5781C11.7869 36.706 10.9509 35.7591 10.1416 34.8404C9.5242 34.1409 8.88852 33.4197 8.22977 32.7302C8.78632 32.4231 9.35014 32.0915 9.94026 31.7272L12.1566 34.4187C12.404 34.7182 12.6835 34.7816 12.8741 34.7816C13.1112 34.7816 13.3463 34.6843 13.5407 34.5088C13.6042 34.4726 13.6613 34.4305 13.7158 34.3823C18.1662 30.4844 22.4459 26.299 26.4159 22.3407C26.6677 22.7558 26.9426 23.1909 27.2598 23.6811C25.7537 25.2493 24.1789 26.8021 22.6543 28.3053Z" fill="#00B4FF"/>
</svg>
