<svg width="54" height="52" viewBox="0 0 54 52" fill="none" xmlns="http://www.w3.org/2000/svg">
<path d="M12.3555 21.4006C13.9689 22.544 15.7943 23.1482 17.6353 23.1482C20.0464 23.1482 22.4218 22.134 24.3233 20.292C24.8324 19.7989 25.3641 19.2237 25.5067 19.0535C25.5652 18.9829 25.62 18.9003 25.6686 18.8095C27.4932 15.3617 27.189 11.7959 24.833 9.02632C24.2717 8.36623 23.7742 7.80724 23.5951 7.63457C23.5067 7.54966 23.3987 7.47377 23.2735 7.40975C21.6303 6.56477 19.9663 6.13623 18.329 6.13623C16.0781 6.13623 13.9044 6.9343 11.8689 8.50934C11.7806 8.57747 11.7051 8.65108 11.6452 8.72811C11.4995 8.91642 11.0273 9.56088 10.6087 10.1764C7.90534 14.1399 8.62386 18.7557 12.3555 21.4006ZM13.4545 10.6309C13.4942 10.5889 13.5299 10.5449 13.5617 10.5005C13.7298 10.2678 14.36 9.7372 15.0609 9.38536C16.6404 8.59117 18.4083 8.42112 20.1686 8.89051C20.997 9.11135 22.1422 9.81858 22.7208 10.4671C24.2139 12.1393 24.6856 14.0865 24.0838 16.0983C23.8721 16.8056 23.5042 17.5123 23.3538 17.6691C21.9931 19.4986 20.0775 20.4954 17.9419 20.4954C15.3355 20.4954 12.8621 18.9776 11.9267 16.8044C11.4236 15.6341 10.9519 13.2746 13.4545 10.6309Z" fill="#00B4FF"/>
<path d="M36.3959 12.1419C37.6042 12.9976 38.9724 13.4502 40.3529 13.4502C42.1592 13.4502 43.9378 12.6919 45.36 11.3141C45.7435 10.9432 46.1301 10.5242 46.2385 10.3941C46.2884 10.3341 46.3341 10.2659 46.3735 10.1913C47.7418 7.60695 47.5118 4.9321 45.7431 2.85286C45.3287 2.36578 44.9596 1.95082 44.8251 1.82095C44.751 1.74916 44.6599 1.68559 44.5556 1.63207C43.3295 1.00153 42.0863 0.681641 40.8619 0.681641C39.1772 0.681641 37.5528 1.27737 36.0327 2.45297C35.9586 2.5106 35.8954 2.57291 35.8444 2.63865C35.7361 2.77742 35.3878 3.25355 35.0777 3.70845C33.0492 6.68516 33.5904 10.1533 36.3959 12.1419ZM37.3846 4.21608C37.4187 4.17956 37.4484 4.14304 37.4756 4.10538C37.5764 3.96603 38.0133 3.58611 38.5256 3.33002C39.6557 2.76259 40.9179 2.64093 42.1778 2.9768C42.7631 3.13292 43.5734 3.63302 43.9841 4.0926C45.0614 5.29946 45.389 6.64602 44.9554 8.09449C44.7909 8.64354 44.5283 9.11237 44.4525 9.1918C43.4685 10.5122 42.1018 11.2241 40.5789 11.2241C38.7193 11.2241 36.9558 10.1442 36.2905 8.59835C35.9334 7.7706 35.6014 6.10005 37.3846 4.21608Z" fill="#00B4FF"/>
<path d="M53.2918 17.4085C53.2745 17.2513 53.2229 17.0994 53.1382 16.9562C52.2151 15.3894 50.6324 14.6086 48.727 14.8419C48.72 14.8424 48.7136 14.8437 48.7078 14.8447C48.6812 14.8419 48.6539 14.8396 48.6245 14.8396C47.2325 14.8396 45.8375 14.8243 44.4415 14.8085C43.0419 14.7932 41.6406 14.7778 40.2404 14.7778C37.657 14.7778 34.254 14.8242 30.8302 15.1861C30.6911 15.1748 30.5423 15.1907 30.3962 15.2354C29.0643 15.6419 27.9905 16.5622 27.4493 17.7609C27.3956 17.8792 27.3589 18.002 27.3389 18.126C27.2743 18.2676 27.2397 18.4227 27.2366 18.5864C27.2231 19.2973 27.2059 20.0083 27.1894 20.7185C27.1651 21.7512 27.1442 22.7971 27.1282 23.8471C27.2261 23.8479 27.3247 23.8491 27.4227 23.8496C27.5224 23.8502 27.622 23.8514 27.7217 23.8525C28.0891 23.8559 28.4561 23.862 28.8227 23.8696C28.9212 23.8719 29.0198 23.8774 29.1178 23.8797C29.2168 23.882 29.3164 23.8869 29.4155 23.8899C29.4307 22.8033 29.4526 21.7207 29.477 20.6526C29.4921 20.01 29.5066 19.3667 29.5198 18.724C29.8369 18.1016 30.3126 17.6783 30.935 17.4654C34.3217 17.1099 37.6928 17.0643 40.2543 17.0643C41.6503 17.0643 43.0476 17.0796 44.4431 17.095C45.8149 17.1104 47.1853 17.1238 48.5177 17.1238C48.6057 17.1342 48.7007 17.1368 48.8016 17.1238C48.9743 17.1029 49.1413 17.091 49.303 17.091C50.1623 17.091 50.7541 17.4156 51.1649 18.113C51.1864 18.1488 51.209 18.1822 51.2321 18.2139C51.5236 22.0202 51.6784 25.9626 51.7055 30.2546C50.7505 30.257 49.6709 30.2685 48.59 30.3173C48.5245 27.8612 48.3988 24.6975 48.2858 22.6669C48.2453 21.9471 47.6564 21.5702 47.0953 21.5702C46.7732 21.5702 46.4718 21.6925 46.2707 21.9049C46.076 22.1109 45.9827 22.3856 45.9994 22.6995C46.135 25.1138 46.3002 29.383 46.3426 32.1155C44.5286 32.1074 42.7141 32.09 40.9002 32.0732C39.6344 32.0605 38.3688 32.0523 37.102 32.0431C37.1131 32.1421 37.1229 32.2412 37.1333 32.3408C37.1425 32.4393 37.1501 32.5384 37.1589 32.6376C37.1866 32.9644 37.2092 33.2925 37.2255 33.6211C37.2308 33.7201 37.2376 33.8186 37.2417 33.9178C37.2458 34.0168 37.2475 34.1153 37.2516 34.2145C38.4692 34.2244 39.6874 34.2279 40.9056 34.2406C43.1704 34.2638 45.4339 34.287 47.6986 34.2899H47.7004C48.0945 34.2899 48.4259 34.1028 48.6103 33.7765C48.794 33.4508 48.8022 33.0243 48.6359 32.6888L48.6335 32.4836C49.8604 32.4286 51.0819 32.421 52.226 32.421C52.4376 32.421 52.6328 32.3655 52.798 32.2612C52.8183 32.2617 52.8385 32.2623 52.8589 32.2623C53.1788 32.2623 53.4824 32.1423 53.6911 31.9319C53.8939 31.7291 54.0006 31.4579 53.9999 31.1473C53.9901 26.471 53.8283 22.1716 53.5056 18.0046C53.4888 17.784 53.4153 17.5791 53.2918 17.4085ZM48.6308 15.1362V15.1368V15.1362Z" fill="#00B4FF"/>
<path d="M33.5546 24.8357C33.9672 25.1188 34.3352 25.4347 34.6615 25.7806C34.7617 25.8867 34.8679 25.9901 34.9605 26.1016C35.0676 26.2308 35.1626 26.3682 35.2607 26.5044C35.249 25.1124 35.2392 23.8026 35.2375 22.8246C35.2351 21.6804 33.8415 21.4579 33.2596 22.04C33.0574 22.2431 32.9508 22.5149 32.9514 22.8259C32.9525 23.3022 32.9548 23.8594 32.9588 24.4647C33.0609 24.5212 33.1594 24.5794 33.2567 24.6394C33.3587 24.7021 33.4566 24.7687 33.5546 24.8357Z" fill="#00B4FF"/>
<path d="M35.5122 34.9485C35.5064 34.6993 35.5001 34.4513 35.4931 34.2033C35.4902 34.1036 35.4878 34.0051 35.485 33.9065C35.4821 33.8068 35.4763 33.7084 35.4729 33.6097C35.4608 33.2812 35.4497 32.9532 35.4318 32.6258C35.4265 32.526 35.4161 32.4281 35.4103 32.3289C35.4045 32.2293 35.3946 32.1297 35.3883 32.0312C35.3704 31.7785 35.3565 31.5257 35.3321 31.2743C35.3235 31.1792 35.309 31.0818 35.2991 30.9857C35.2492 30.5232 35.1866 30.0515 35.0812 29.5879C35.0551 29.4719 35.0198 29.3584 34.9885 29.2448C34.9068 28.9492 34.8101 28.6595 34.6849 28.3831C34.5244 28.0295 34.3261 27.6951 34.0723 27.395C33.9309 27.228 33.7577 27.0704 33.5728 26.9192C33.4766 26.8404 33.3792 26.7622 33.2744 26.688C33.1782 26.6213 33.0778 26.5571 32.9759 26.495C32.7627 26.3645 32.5396 26.2453 32.3089 26.1401C31.9408 25.9708 31.5601 25.839 31.1869 25.7471C30.9129 25.6796 30.6427 25.6292 30.3895 25.6113C30.0628 25.5887 29.733 25.5811 29.4027 25.5757C29.3052 25.5739 29.208 25.5699 29.1105 25.5699C29.0096 25.5693 28.9089 25.5723 28.8081 25.5723C28.44 25.574 28.0727 25.5774 27.7041 25.5864C27.6056 25.5888 27.5065 25.5911 27.4079 25.5936C27.3088 25.596 27.2097 25.5983 27.1106 25.6006C26.6201 25.6119 26.1304 25.6215 25.645 25.6174C24.7929 25.6096 23.9406 25.6 23.0879 25.5911C22.2435 25.5818 21.3995 25.5729 20.5552 25.565C17.1605 25.5354 13.7634 25.536 10.3713 25.6884C8.46687 25.7738 6.56487 25.9069 4.66903 26.108C4.52364 26.0914 4.36501 26.1033 4.19439 26.1555C2.54575 26.6591 1.14635 27.7909 0.430674 29.376C0.364824 29.5219 0.322027 29.6738 0.303768 29.8256C0.229016 29.9716 0.180969 30.142 0.177432 30.3414C0.0693555 35.8533 -0.159921 41.3581 0.177432 46.8659C0.206419 47.3405 0.46514 47.6617 0.798041 47.8314C0.968429 47.9937 1.20227 48.1014 1.50653 48.1014C3.68756 48.1014 5.86768 48.0916 8.04667 47.9907C8.05157 48.7215 8.05454 49.4006 8.05568 49.9866C8.05625 50.19 8.10259 50.3627 8.17734 50.5105C8.30824 50.8842 8.63144 51.1828 9.14683 51.1833C15.3126 51.1904 21.4779 51.3108 27.6435 51.3179C28.608 51.319 28.8984 50.2771 28.5171 49.646C28.5153 49.4025 28.5118 49.1442 28.5084 48.8764C30.2741 48.7866 32.0411 48.7721 33.8098 48.7714C34.0891 48.7714 34.3094 48.681 34.4756 48.5419C35.1097 48.6353 35.8237 48.2708 35.822 47.442C35.8139 43.8334 35.6701 40.2362 35.5582 36.6305C35.5378 36.0705 35.5255 35.5095 35.5122 34.9485ZM28.4618 46.7331C28.3713 43.1312 28.1883 38.615 28.037 35.9127C27.9547 34.435 25.6475 34.4268 25.7313 35.9127C25.9188 39.2704 26.1578 45.4436 26.2048 49.1652C20.9221 49.1454 15.6391 49.0631 10.3565 49.0447C10.34 45.3369 10.2699 39.3689 10.2641 36.1051C10.2609 34.618 7.95502 34.618 7.95788 36.1051C7.96278 38.5343 8.0025 42.4648 8.02977 45.8457C6.16635 45.9314 4.30224 45.9512 2.43744 45.954C2.1761 40.7772 2.37684 35.6015 2.47944 30.4212C2.94883 29.4534 3.69064 28.7482 4.72313 28.4078C7.99246 28.0631 11.2795 27.9222 14.566 27.8746C16.6405 27.8445 18.7157 27.8538 20.7904 27.8722C22.014 27.8839 23.2377 27.8978 24.4609 27.9099C25.3504 27.9198 26.24 27.9123 27.1296 27.9053C27.2275 27.9048 27.3254 27.9041 27.424 27.9035C27.5237 27.9029 27.6234 27.9024 27.7231 27.9011C28.047 27.9 28.3704 27.8966 28.6944 27.8966C28.7379 27.8966 28.782 27.8966 28.8253 27.8953C28.9262 27.8953 29.0264 27.8953 29.1283 27.8942C29.2252 27.8942 29.323 27.8953 29.4209 27.8966C29.8556 27.9 30.2937 27.9273 30.7116 28.0171C31.1996 28.1226 31.658 28.3162 32.0387 28.6882C32.2415 28.8864 32.3957 29.095 32.5198 29.3124C32.5922 29.4387 32.6536 29.5679 32.7047 29.7012C32.7405 29.7963 32.7719 29.8925 32.7985 29.9904C32.8256 30.0879 32.8478 30.1869 32.8674 30.2877C32.9149 30.5391 32.9439 30.801 32.9589 31.0787C32.9625 31.1395 32.9665 31.2009 32.97 31.2624C32.9764 31.3609 32.9828 31.4595 32.9886 31.558C32.9944 31.6588 33.0013 31.7585 33.0077 31.8594C33.0105 31.9121 33.014 31.9649 33.0176 32.017C33.0471 32.4887 33.0743 32.9599 33.1045 33.4322C33.1329 33.8784 33.1618 34.3258 33.1844 34.7731C33.185 34.7853 33.1863 34.7976 33.1868 34.8108C33.3096 37.3237 33.3896 39.8371 33.451 42.351C33.4858 43.7754 33.4985 45.1999 33.5056 46.6243C31.823 46.6281 30.1418 46.6462 28.4618 46.7331Z" fill="#00B4FF"/>
</svg>
