<svg width="39" height="49" viewBox="0 0 39 49" fill="none" xmlns="http://www.w3.org/2000/svg">
<path d="M30.9065 3.41251C30.7677 3.42323 30.6462 3.45962 30.5349 3.50713C30.2597 2.49694 29.8796 1.51646 29.3717 0.58044C29.0945 0.0706246 28.6265 -0.0668868 28.1944 0.0292138C28.109 0.0107216 28.018 0 27.9196 0H11.0667C10.9685 0 10.8777 0.0107216 10.7922 0.0292138C10.3604 -0.0669852 9.89186 0.0706246 9.61467 0.58044C9.10722 1.51489 8.72833 2.49389 8.45261 3.50261C8.34422 3.45746 8.22717 3.42323 8.093 3.413C5.34857 3.20024 1.49412 3.24116 0.491115 6.41494C-0.363462 9.11864 1.67816 12.4427 2.94311 14.6732C4.82489 17.9905 7.07258 21.0891 8.87056 24.4556C9.94321 26.4643 11.4224 29.3567 8.0931 29.4857C6.68906 29.5407 6.68405 31.7244 8.0931 31.6699C11.9022 31.5221 12.6099 29.4492 12.0663 26.9352C13.2068 29.66 14.5847 32.2748 16.2327 34.6244C16.7267 35.5964 17.2654 36.5384 17.9717 37.3695C17.1888 38.8934 16.6329 40.5173 16.3171 42.2305L16.2684 42.2295C13.726 42.2295 10.9753 43.14 10.8797 45.6959C10.8598 46.2268 11.0556 46.7093 11.4621 47.1314C13.2421 48.9785 18.5809 49 18.8076 49C19.0838 49 19.3205 48.992 19.5099 48.9785C19.5578 48.9745 19.605 48.9684 19.65 48.9605C19.6959 48.9695 19.7437 48.9749 19.7921 48.9785C19.9779 48.992 20.2157 49 20.4914 49C20.7187 49 26.0565 48.9785 27.8357 47.1314C28.2419 46.7098 28.4381 46.2269 28.4187 45.6959C28.3227 43.14 25.5726 42.2295 23.0298 42.2295L22.826 42.2315C22.788 42.2325 22.7536 42.241 22.7171 42.2445C22.5298 40.3574 21.9729 38.5988 21.0768 36.9889C21.6457 36.1443 22.2366 35.3147 22.885 34.5285C23.0124 34.3746 23.1022 34.2013 23.1582 34.022C24.6565 31.7863 25.9138 29.3253 26.9727 26.7765C26.3648 29.3608 27.0192 31.519 30.9071 31.6699C32.3162 31.7244 32.3107 29.5402 30.9071 29.4857C27.5775 29.3567 29.0575 26.4638 30.1294 24.4556C31.927 21.089 34.1753 17.9905 36.0569 14.6732C37.322 12.4427 39.3635 9.11913 38.5089 6.41494C37.5057 3.24067 33.6511 3.19975 30.9065 3.41251ZM8.11454 18.9015C6.19351 15.8475 3.92713 12.7517 2.81819 9.2832C1.61422 5.5158 5.11437 5.37249 8.03054 5.59302C7.49987 9.46675 8.21261 13.6165 9.0363 17.2992C9.48729 19.3174 10.053 21.371 10.7363 23.4008C9.86471 21.6492 8.80554 20.0001 8.11454 18.9015ZM22.4608 44.7489C22.5821 44.7828 22.7089 44.8068 22.8469 44.8068H22.8474L23.0048 44.8058C24.3029 44.8058 25.3728 45.0445 25.7289 45.4142C25.8133 45.5016 25.8478 45.586 25.8462 45.6819C25.7334 45.9267 24.3888 46.4316 20.9543 46.4316C20.4514 46.4316 20.0448 46.4187 19.8645 46.4052C19.7886 46.3991 19.7169 46.4002 19.6495 46.4072C19.5808 46.4003 19.5109 46.3992 19.433 46.4052C19.2537 46.4182 18.8473 46.4316 18.3441 46.4316C14.9096 46.4316 13.5655 45.9267 13.4554 45.696C13.4513 45.5861 13.4856 45.5016 13.57 45.4143C13.9082 45.0637 14.8902 44.8334 16.0982 44.8098C16.4211 45.8843 18.3113 45.7428 18.3933 44.3952C18.5031 42.5986 18.919 40.897 19.6089 39.3125C20.1931 40.7321 20.4763 42.2754 20.4438 43.9557C20.4213 45.1244 21.8119 45.3842 22.4608 44.7489ZM21.0112 33.0159C20.8373 33.0659 20.679 33.1538 20.5471 33.2722C20.22 33.3312 19.8938 33.3786 19.5663 33.4065C19.5659 33.4065 19.5654 33.4065 19.5649 33.4065C19.4532 33.4054 19.356 33.3961 19.2549 33.3885C19.1633 33.379 19.0719 33.3695 18.9802 33.357C18.6313 33.3017 18.3204 33.1757 17.985 32.948C17.9251 32.8636 17.8616 32.7881 17.7904 32.7292C15.0353 28.5569 13.2311 23.7384 11.8773 18.9629C10.4585 13.959 9.02745 7.32735 11.3603 2.34448H27.6263C29.9594 7.32735 28.5283 13.9595 27.1093 18.9629C25.7239 23.8469 23.8743 28.7793 21.0112 33.0159ZM36.1821 9.28271C35.0733 12.7517 32.8071 15.8475 30.8856 18.901C30.1787 20.0246 29.0869 21.7253 28.2053 23.5215C28.9086 21.4522 29.491 19.3578 29.9515 17.2984C30.7741 13.6159 31.4873 9.46675 30.957 5.59302C33.8759 5.3714 37.3878 5.5101 36.1821 9.28271Z" fill="#00B4FF"/>
<path d="M26.7557 4.35117C26.6369 3.62141 25.9995 3.44288 25.4531 3.6342C25.3278 3.58148 25.1845 3.5498 25.0201 3.5498H21.8804C20.4718 3.5498 20.4718 5.73386 21.8804 5.73386H24.7593C25.2163 9.17803 25.0072 12.5743 24.1036 15.9546C23.7394 17.3172 25.8463 17.8946 26.2099 16.5352C27.2877 12.502 27.4255 8.46648 26.7557 4.35117Z" fill="#4CACF8"/>
</svg>
