<svg width="72" height="73" viewBox="0 0 72 73" fill="none" xmlns="http://www.w3.org/2000/svg">
<circle cx="36" cy="36.0684" r="34.5" fill="#3179FF" stroke="#CFE0FF" stroke-width="3"/>
<path d="M42.7471 46.0684H28.7725V44.1201L36.1553 35.917C37.249 34.6768 38.001 33.6709 38.4111 32.8994C38.8311 32.1182 39.041 31.3125 39.041 30.4824C39.041 29.3691 38.7041 28.4561 38.0303 27.7432C37.3564 27.0303 36.458 26.6738 35.335 26.6738C33.9873 26.6738 32.9375 27.0596 32.1855 27.8311C31.4434 28.5928 31.0723 29.6572 31.0723 31.0244H28.3623C28.3623 29.0615 28.9922 27.4746 30.252 26.2637C31.5215 25.0527 33.2158 24.4473 35.335 24.4473C37.3174 24.4473 38.8848 24.9697 40.0371 26.0146C41.1895 27.0498 41.7656 28.4316 41.7656 30.1602C41.7656 32.2598 40.4277 34.7598 37.752 37.6602L32.0391 43.8564H42.7471V46.0684Z" fill="white"/>
</svg>
