<svg width="72" height="73" viewBox="0 0 72 73" fill="none" xmlns="http://www.w3.org/2000/svg">
<circle cx="36" cy="36.0684" r="34.5" fill="#3179FF" stroke="#CFE0FF" stroke-width="3"/>
<path d="M32.7129 34.0859H34.749C36.0283 34.0664 37.0342 33.7295 37.7666 33.0752C38.499 32.4209 38.8652 31.5371 38.8652 30.4238C38.8652 27.9238 37.6201 26.6738 35.1299 26.6738C33.958 26.6738 33.0205 27.0107 32.3174 27.6846C31.624 28.3486 31.2773 29.2324 31.2773 30.3359H28.5674C28.5674 28.6465 29.1826 27.2451 30.4131 26.1318C31.6533 25.0088 33.2256 24.4473 35.1299 24.4473C37.1416 24.4473 38.7188 24.9795 39.8613 26.0439C41.0039 27.1084 41.5752 28.5879 41.5752 30.4824C41.5752 31.4102 41.2725 32.3086 40.667 33.1777C40.0713 34.0469 39.2559 34.6963 38.2207 35.126C39.3926 35.4971 40.2959 36.1123 40.9307 36.9717C41.5752 37.8311 41.8975 38.8809 41.8975 40.1211C41.8975 42.0352 41.2725 43.5537 40.0225 44.6768C38.7725 45.7998 37.1465 46.3613 35.1445 46.3613C33.1426 46.3613 31.5117 45.8193 30.252 44.7354C29.002 43.6514 28.377 42.2207 28.377 40.4434H31.1016C31.1016 41.5664 31.4678 42.4648 32.2002 43.1387C32.9326 43.8125 33.9141 44.1494 35.1445 44.1494C36.4531 44.1494 37.4541 43.8076 38.1475 43.124C38.8408 42.4404 39.1875 41.459 39.1875 40.1797C39.1875 38.9395 38.8066 37.9873 38.0449 37.3232C37.2832 36.6592 36.1846 36.3174 34.749 36.2979H32.7129V34.0859Z" fill="white"/>
</svg>
