<svg width="56" height="50" viewBox="0 0 56 50" fill="none" xmlns="http://www.w3.org/2000/svg">
<path d="M56.3244 17.7653L56.3244 17.7653C56.7351 18.08 56.9753 18.4576 57.0824 18.8665C57.1889 19.2728 57.1616 19.7004 57.0544 20.115C56.8406 20.9412 56.3023 21.7431 55.7986 22.2899L55.7986 22.29C54.4648 23.7373 52.683 24.8466 50.7664 25.3284M56.3244 17.7653L50.7298 25.1829M56.3244 17.7653C55.5183 17.1482 54.5253 17.134 53.6061 17.2834L53.6059 17.2834M56.3244 17.7653L53.6059 17.2834M50.7664 25.3284L50.7298 25.1829M50.7664 25.3284C50.7665 25.3284 50.7666 25.3284 50.7667 25.3283L50.7298 25.1829M50.7664 25.3284C50.4124 25.4181 50.0953 25.349 49.8428 25.1905M50.7298 25.1829C50.4113 25.2637 50.1311 25.1989 49.9094 25.0551M49.8428 25.1905C49.8484 25.1926 49.8541 25.1947 49.8597 25.1966L49.9094 25.0551M49.8428 25.1905C49.7078 25.1406 49.5763 25.0616 49.4518 24.9465L49.4515 24.9462C48.8835 24.4186 48.4865 23.795 48.4254 22.9848M49.8428 25.1905C49.8378 25.1874 49.8328 25.1842 49.8278 25.181L49.9094 25.0551M49.9094 25.0551L48.4254 22.9848M48.4254 22.9848L48.575 22.9733M48.4254 22.9848L49.5536 24.8363C49.0041 24.3259 48.6323 23.7351 48.575 22.9733M48.4254 22.9848C48.4254 22.9847 48.4254 22.9847 48.4254 22.9846L48.575 22.9733M48.4254 22.9848C48.3841 22.4479 48.5468 21.9476 48.7785 21.4951M48.575 22.9733C48.5342 22.4431 48.7068 21.9437 48.9548 21.4819M27.1776 18.7661C27.2168 18.7994 27.2558 18.8328 27.2946 18.8663C27.2851 18.8733 27.2755 18.8803 27.266 18.8872L27.1776 18.7661ZM27.1776 18.7661C27.2191 18.7357 27.2606 18.7054 27.3021 18.6751C27.293 18.6673 27.2838 18.6595 27.2746 18.6517L27.1776 18.7661ZM31.9054 23.3426C31.9443 23.3741 31.9833 23.4054 32.0227 23.4366C32.0206 23.4388 32.0186 23.4411 32.0166 23.4433L31.9054 23.3426ZM31.9054 23.3426C31.939 23.3055 31.9727 23.2684 32.0063 23.2313C32.0041 23.2295 32.002 23.2278 31.9998 23.226L31.9054 23.3426ZM48.9548 21.4819L48.8337 21.5704C48.8153 21.5453 48.7969 21.5202 48.7785 21.4951M48.9548 21.4819C48.7471 21.1978 48.535 20.9169 48.3229 20.6359C48.1236 20.372 47.9243 20.108 47.7287 19.8415M48.9548 21.4819L48.8227 21.4109C48.8077 21.4388 48.793 21.4668 48.7785 21.4951M48.7785 21.4951C48.5956 21.2463 48.4094 20.9994 48.2225 20.7518L48.2032 20.7263C48.0187 20.4819 47.8335 20.2367 47.6512 19.9892M47.7287 19.8415L47.7246 19.9914C47.7001 19.9907 47.6756 19.99 47.6512 19.9892M47.7287 19.8415C44.7921 19.7604 42.4092 18.6598 40.3844 17.0148M47.7287 19.8415L47.6078 19.9302C47.6222 19.9499 47.6367 19.9695 47.6512 19.9892M47.6512 19.9892C44.7622 19.8926 42.4045 18.8189 40.3994 17.2194M40.3844 17.0148L40.4945 17.1166C40.4628 17.1509 40.4311 17.1851 40.3994 17.2194M40.3844 17.0148C38.6094 18.933 36.8531 20.8767 35.0955 22.8218C34.5905 23.3807 34.0854 23.9397 33.5797 24.4983L38.8924 15.6571M40.3844 17.0148L40.2898 17.1312C40.3262 17.1608 40.3627 17.1902 40.3994 17.2194M40.3994 17.2194C38.6574 19.1035 36.9332 21.0117 35.2072 22.9219C34.7021 23.4809 34.1968 24.0401 33.6909 24.5989L33.6099 24.6883L33.5052 24.6285C32.8787 24.2704 32.3243 23.8748 31.811 23.4592L31.6878 23.3594L31.7943 23.2419C32.3693 22.6071 32.9435 21.9715 33.5176 21.336C35.235 19.4352 36.9516 17.5353 38.6858 15.6595M38.6858 15.6595C38.7188 15.6938 38.7518 15.7279 38.785 15.7619L38.8924 15.6571M38.6858 15.6595C38.718 15.6247 38.7501 15.59 38.7823 15.5553L38.8924 15.6571M38.6858 15.6595C38.1445 15.0964 37.6326 14.4961 37.1419 13.8726M38.8924 15.6571C38.318 15.0685 37.7764 14.4365 37.2578 13.7773C37.2192 13.8091 37.1806 13.8409 37.1419 13.8726M37.1419 13.8726C34.4296 16.1006 31.6051 18.2101 28.7564 20.2924L28.6514 20.3692L28.5605 20.276C28.0927 19.7965 27.6074 19.3276 27.0805 18.8804L26.9353 18.7572L27.0891 18.6449C30.0442 16.488 32.9722 14.3074 35.78 12.0014M37.1419 13.8726C37.111 13.8333 37.0802 13.794 37.0494 13.7545C34.3396 15.9805 31.5169 18.0887 28.6679 20.1713L35.78 12.0014M35.78 12.0014C35.8059 12.0393 35.8319 12.0771 35.8578 12.1149L35.9814 12.03L35.8861 11.9142C35.8508 11.9433 35.8154 11.9723 35.78 12.0014ZM35.78 12.0014C34.7324 10.467 33.7784 8.85913 32.8699 7.3173L32.8699 7.31729C32.5921 6.84566 32.6782 6.36475 32.933 6.01885M35.78 12.0014L32.9991 7.24116C32.7517 6.82107 32.8324 6.39795 33.065 6.09284M32.933 6.01885L32.9299 6.02727C32.9292 6.0292 32.9289 6.02972 32.929 6.02956L33.065 6.09284M32.933 6.01885C32.9372 6.01316 32.9415 6.0075 32.9457 6.00188L33.065 6.09284M32.933 6.01885L32.9335 6.01756C32.9367 6.00876 32.9427 5.9925 32.9523 5.97456L32.9528 5.97359C34.3161 3.47052 36.4277 1.60751 39.1914 0.794887M33.065 6.09284C33.0683 6.08574 33.0708 6.07884 33.0733 6.07197C33.0765 6.06313 33.0797 6.05436 33.0845 6.04534C34.4311 3.57303 36.5126 1.7389 39.2337 0.938795M39.1914 0.794887C39.1913 0.794894 39.1913 0.794901 39.1913 0.794908L39.2337 0.938795M39.1914 0.794887L39.2337 0.938795M39.1914 0.794887C39.8222 0.60908 40.3239 0.936501 40.5613 1.38016M39.2337 0.938795C39.7918 0.774395 40.2324 1.06596 40.4392 1.47024M40.4392 1.47024L40.5449 1.36386L40.5613 1.38016M40.4392 1.47024L48.0293 9.0148C48.148 9.13282 48.2277 9.26146 48.2775 9.39325M40.4392 1.47024L40.5727 1.40193C40.569 1.39464 40.5652 1.38739 40.5613 1.38016M40.5613 1.38016L48.1351 8.90842L48.1351 8.90843C48.2584 9.03108 48.3457 9.16525 48.4034 9.30411M48.4034 9.30411C48.3943 9.29615 48.3852 9.28819 48.3761 9.28023L48.2775 9.39325M48.4034 9.30411C48.4084 9.31612 48.4132 9.32818 48.4178 9.34026L48.2775 9.39325M48.4034 9.30411C49.7191 10.4524 51.0289 11.6117 52.2839 12.833M48.2775 9.39325C49.6021 10.5492 50.9188 11.7138 52.1794 12.9405M52.1794 12.9405L52.2839 12.833M52.1794 12.9405C52.4028 13.1576 52.4934 13.4107 52.4934 13.6576M52.1794 12.9405L52.284 12.833C52.284 12.833 52.2839 12.833 52.2839 12.833M52.2839 12.833C52.5323 13.0744 52.6393 13.3602 52.6433 13.6414M52.4934 13.6576L52.64 13.6258C52.6411 13.631 52.6422 13.6362 52.6433 13.6414M52.4934 13.6576C52.5219 13.789 52.5312 13.9281 52.5174 14.0696L52.6667 14.0841C52.6815 13.9323 52.6725 13.783 52.6433 13.6414M52.4934 13.6576H52.6434C52.6434 13.6522 52.6434 13.6468 52.6433 13.6414M53.6059 17.2834C53.5693 17.2894 53.5338 17.2973 53.4998 17.306L53.6059 17.2834ZM51.081 22.1269L51.0809 22.1271C50.9458 22.3209 50.8462 22.482 50.799 22.6291C50.7585 22.7555 50.7582 22.8663 50.8111 22.9789C50.8321 22.9772 50.8646 22.9713 50.9107 22.9571C51.0308 22.9203 51.1997 22.8417 51.4052 22.7259C51.8137 22.4956 52.3389 22.1342 52.8551 21.7237C53.3714 21.3132 53.8728 20.8581 54.236 20.4421C54.4179 20.2339 54.5616 20.0394 54.6555 19.8684C54.727 19.7382 54.7636 19.6324 54.7736 19.5505C54.5318 19.4518 54.2809 19.5363 53.9644 19.6492L53.949 19.6548C53.6298 19.7688 53.2305 19.9114 52.8462 19.6584L52.8462 19.6584C52.4756 19.4142 52.1222 19.1475 51.7735 18.8843L51.7731 18.884C51.423 18.6198 51.0774 18.359 50.7166 18.1211C50.3099 17.8533 50.0227 17.4127 50.1046 16.9084C50.1037 16.8957 50.1025 16.8835 50.101 16.8691C50.1 16.8588 50.0988 16.8474 50.0976 16.834C50.0944 16.7991 50.0917 16.756 50.0962 16.709L50.0962 16.7089L50.3437 14.1382C50.3417 14.135 50.3391 14.1311 50.3359 14.1265C50.3158 14.0978 50.2824 14.0585 50.2357 14.0098C50.1432 13.9131 50.0138 13.7945 49.8761 13.6741C49.7391 13.5541 49.5969 13.4349 49.4799 13.3371C49.4692 13.3282 49.4586 13.3193 49.4482 13.3107C49.3486 13.2275 49.2661 13.1585 49.2321 13.126L49.2319 13.1258C49.0928 12.9924 48.9536 12.8589 48.8144 12.7254C48.4806 12.4053 48.1467 12.0851 47.8131 11.7644C46.9008 10.8874 45.9901 10.0075 45.0849 9.12216C43.811 7.87657 42.5481 6.61913 41.286 5.36238C40.9704 5.04815 40.6548 4.73397 40.3392 4.42002C40.1139 4.19629 39.8887 3.97238 39.6634 3.74851C39.4995 3.58556 39.3356 3.42263 39.1717 3.2598C37.461 3.94477 36.1271 5.13546 35.1782 6.75643C35.1787 6.75799 35.1793 6.75963 35.1799 6.76135C35.1919 6.79568 35.2144 6.84504 35.2475 6.90809C35.313 7.03292 35.4098 7.19232 35.5143 7.35635C35.6183 7.51967 35.728 7.68447 35.8184 7.81953C35.8319 7.83975 35.8451 7.85944 35.8578 7.87846C35.9283 7.98363 35.9849 8.06817 36.0082 8.107L36.0083 8.10705C36.311 8.61257 36.623 9.11292 36.9409 9.60952L51.081 22.1269ZM51.081 22.1269C51.4231 21.6343 51.4806 20.9602 50.957 20.505M51.081 22.1269L49.3001 18.3241M49.3001 18.3241L49.3002 18.3242C49.557 18.688 49.8269 19.0427 50.099 19.3991L50.1359 19.4476C50.3899 19.7802 50.6454 20.1149 50.8909 20.4572C50.8947 20.4597 50.8992 20.4625 50.9046 20.4661C50.9183 20.475 50.9377 20.488 50.957 20.505M49.3001 18.3241C49.1341 18.0895 48.8885 17.9458 48.6223 17.8539C48.3565 17.7622 48.0586 17.7182 47.7735 17.6905L47.7734 17.6905M49.3001 18.3241L47.7734 17.6905M50.957 20.505C50.9572 20.5052 50.9573 20.5053 50.9575 20.5055L50.8581 20.6178L50.9564 20.5045C50.9566 20.5047 50.9568 20.5048 50.957 20.505ZM47.7734 17.6905C47.6281 17.6765 47.4832 17.6666 47.3464 17.6572C47.3143 17.6551 47.2826 17.6529 47.2515 17.6507C47.0859 17.6391 46.936 17.6271 46.8068 17.608L46.8066 17.608M47.7734 17.6905L46.8066 17.608M46.8066 17.608C45.8861 17.4736 44.9781 17.2964 44.1364 16.9301L44.1363 16.9301M46.8066 17.608L44.1363 16.9301M44.1363 16.9301C42.1109 16.0496 40.3138 14.323 38.9698 12.5758L38.9698 12.5758M44.1363 16.9301L38.9698 12.5758M38.9698 12.5758C38.2414 11.6294 37.5892 10.6212 36.941 9.60958L38.9698 12.5758ZM44.0765 17.0677C44.9371 17.4422 45.8612 17.6216 46.7849 17.7564C46.9464 17.7803 47.1357 17.7932 47.337 17.807L44.0765 17.0677ZM44.0765 17.0677C42.0184 16.173 40.2027 14.4245 38.8509 12.6672L44.0765 17.0677ZM52.4321 16.5273C52.4089 16.5105 52.3856 16.4936 52.3624 16.4768L52.2745 16.5984L52.4238 16.6128C52.4266 16.5843 52.4293 16.5558 52.4321 16.5273ZM50.3507 14.1507C50.3507 14.1507 50.3505 14.1503 50.3501 14.1494C50.3503 14.1496 50.3503 14.1498 50.3504 14.15C50.3506 14.1504 50.3507 14.1507 50.3507 14.1507Z" fill="#00B4FF" stroke="#4CACF8" stroke-width="0.3"/>
<path d="M23.5189 34.1594L23.5125 34.146L23.5036 34.1341C23.2425 33.7845 22.9224 33.4607 22.5837 33.2022L22.4797 33.1228L22.387 33.215C21.7806 33.8178 21.1742 34.4182 20.5589 35.0087C19.4671 32.9883 18.0332 31.2303 16.3428 29.6998C16.3207 29.6712 16.2991 29.6421 16.2765 29.6115L16.2734 29.6073C16.2718 29.6052 16.2702 29.6031 16.2687 29.601C17.0835 28.9488 17.9071 28.3058 18.7366 27.6701L18.8501 27.5832L18.7687 27.4657C18.3903 26.9192 18.0255 26.3572 17.679 25.7749L17.5929 25.6301L17.4591 25.7323C12.3615 29.625 7.48113 33.7711 3.32397 38.7104L3.32386 38.7105C3.2319 38.82 3.17141 38.9328 3.12739 39.0426C2.97312 39.302 2.94671 39.628 3.12117 39.982L3.12119 39.982C4.47561 42.7278 6.55717 44.9972 9.37414 46.2945C9.59011 46.3942 9.79862 46.4205 9.99257 46.3983C10.2401 46.4295 10.5056 46.3746 10.762 46.1951L10.762 46.1951C15.4879 42.882 19.7723 39.077 23.839 35.0413L23.9252 34.9558L23.8595 34.8537C23.854 34.8452 23.849 34.8374 23.8443 34.8303C23.8281 34.8054 23.8163 34.7873 23.8066 34.7683C23.7476 34.6471 23.6912 34.5265 23.6342 34.4046C23.5963 34.3236 23.5582 34.242 23.5189 34.1594ZM18.3873 37.0338C15.6924 39.4945 12.8884 41.8309 9.9008 43.958C8.06052 42.9866 6.57607 41.4945 5.56263 39.6736C8.26373 36.5462 11.2633 33.7393 14.424 31.1029C14.4555 31.1322 14.4869 31.1622 14.5188 31.1928C14.5276 31.2013 14.5365 31.2099 14.5454 31.2185C14.5967 31.2679 14.6498 31.319 14.7048 31.369C16.083 33.1622 17.3634 35.0215 18.3873 37.0338Z" fill="#00B4FF" stroke="#4CACF8" stroke-width="0.3"/>
<path d="M32.8261 26.2748L32.8264 26.275C33.3883 26.7748 33.953 27.2727 34.5179 27.7709C36.873 29.8475 39.2327 31.9281 41.4136 34.1647C43.3921 36.1934 45.3929 38.3654 46.6743 40.9453C47.4769 42.561 47.325 44.1639 46.685 45.6124C46.0469 47.0567 44.9221 48.3528 43.7652 49.3763C43.613 49.5115 43.4514 49.5839 43.2906 49.6085C43.0464 49.7283 42.752 49.7572 42.4409 49.6318L42.4407 49.6317C35.7315 46.9161 31.2381 41.6647 27.1251 36.0673L27.1251 36.0673C26.4802 35.1893 25.8438 34.3028 25.2099 33.4152L25.2099 33.4152C25.132 33.3061 25.0542 33.1971 24.9764 33.088C24.6567 32.6399 24.337 32.192 24.0168 31.7451C22.7297 29.9492 21.4334 28.1736 20.0691 26.4852C20.0331 26.4408 19.9975 26.3968 19.9621 26.353C19.9082 26.2863 19.8547 26.2201 19.8003 26.1537C19.7236 26.0971 19.6492 26.0314 19.5831 25.9512L19.5826 25.9506L18.9169 25.1343C18.8986 25.1119 18.8802 25.0896 18.8618 25.0671C18.8273 25.0251 18.7925 24.9829 18.758 24.9401C18.1191 24.1559 17.4991 23.4014 16.8539 22.6762L16.8538 22.6761C16.5748 22.362 16.2925 22.0529 16 21.7504L32.8261 26.2748ZM32.8261 26.2748C32.6762 26.142 32.5274 26.0088 32.3781 25.8753L32.3494 25.8496C31.8489 25.4017 31.3533 24.9484 30.8589 24.4939C29.6601 23.3905 28.4909 22.2628 27.3701 21.0923C27.3701 21.0923 27.3701 21.0923 27.3701 21.0923L27.3475 21.0687C26.8946 20.5955 26.4447 20.1254 26.0135 19.6384L26.0135 19.6384L26.012 19.6366C26.0003 19.6238 25.9887 19.6142 25.9847 19.6109L25.9825 19.609C25.9304 19.5544 25.8757 19.5077 25.819 19.4673M32.8261 26.2748L25.819 19.4673M25.819 19.4673C25.1427 18.7932 24.4932 18.1217 23.8887 17.4726C23.8315 17.4111 23.7799 17.3524 23.727 17.292C23.6827 17.2416 23.6374 17.19 23.5869 17.1346L23.5867 17.1344C22.6072 16.0646 21.6348 14.9377 20.6948 13.7642L20.5777 13.858L20.6948 13.7642C20.1739 13.1141 19.6504 12.4363 19.1379 11.7508L19.1378 11.7506C19.0921 11.6897 18.9888 11.5641 18.8592 11.4073L18.8592 11.4072C18.6854 11.1971 18.2464 10.6654 18.0055 10.3303C18.8343 7.35152 18.1931 4.60909 16.193 2.77564C14.0949 0.85167 11.0938 0.0121059 7.73579 0.365374C7.02947 0.439188 6.50265 0.944606 6.402 1.64603C6.30936 2.29033 6.59844 2.94985 7.10042 3.32729C7.29379 3.58199 7.56014 3.77209 7.87446 3.879M25.819 19.4673L15.0124 20.7321C13.5581 19.2357 12.0568 17.6902 10.6325 16.0724C9.67357 16.3932 8.69774 16.5615 7.77439 16.5615C5.80103 16.5615 4.10381 15.8058 2.87565 14.3731C0.907522 12.0779 0.357081 8.8816 1.29729 5.39066C1.29994 5.37552 1.30382 5.36031 1.30644 5.35023C1.31098 5.33278 1.31682 5.31224 1.32333 5.29077L1.33993 5.22683L1.34073 5.22375L1.34076 5.22376C1.53618 4.53194 2.11824 4.07804 2.82299 4.07804C3.29172 4.07804 3.74493 4.27936 4.06672 4.6293M7.87446 3.879C7.87445 3.87899 7.87445 3.87899 7.87444 3.87899L7.92276 3.73699L7.87446 3.879ZM7.87446 3.879C8.55274 4.10981 9.23485 4.37935 9.77747 4.73356C10.3201 5.08775 10.7051 5.51461 10.8224 6.05441L10.8224 6.05445C10.901 6.41595 10.7365 6.79408 10.4871 7.13027C10.2411 7.46202 9.93437 7.72287 9.78779 7.8382L9.78775 7.83823C9.0598 8.41144 7.97387 8.64967 7.08116 8.4237L7.08089 8.42363C6.38341 8.24843 5.83195 7.78962 5.4039 7.24241C4.9818 6.70281 4.68715 6.08649 4.4974 5.59996M4.4974 5.59996C4.46593 5.23935 4.31791 4.90244 4.06672 4.6293M4.4974 5.59996C4.49806 5.60759 4.49868 5.61522 4.49924 5.62287L4.34964 5.63384L4.48953 5.57971C4.49213 5.58644 4.49476 5.59319 4.4974 5.59996ZM4.06672 4.6293C4.06671 4.6293 4.06671 4.62929 4.06671 4.62929L3.9563 4.73083L4.06672 4.6293ZM16.4902 19.2966L16.4902 19.2966L17.4813 20.3173L17.4816 20.3176C17.9148 20.7665 18.3292 21.231 18.7344 21.6984L18.7344 21.6985C19.3097 22.3625 19.8646 23.0363 20.4049 23.7001L16.4902 19.2966ZM16.4902 19.2966L16.465 19.2707C14.874 17.6328 13.2339 15.9444 11.7216 14.1853L11.7215 14.1852M16.4902 19.2966L11.7215 14.1852M11.7215 14.1852L11.305 13.7013L11.234 13.6187M11.7215 14.1852L11.234 13.6187M11.234 13.6187L11.1336 13.6607M11.234 13.6187L11.1336 13.6607M11.1336 13.6607L10.5446 13.9064L10.5446 13.9064M11.1336 13.6607L10.5446 13.9064M10.5446 13.9064C9.6085 14.2971 8.65005 14.5013 7.77506 14.5013C6.39241 14.5013 5.2756 14.0065 4.44029 13.0319L4.44027 13.0319M10.5446 13.9064L4.44027 13.0319M4.44027 13.0319C2.89213 11.2263 2.77548 8.99482 3.0079 7.29918M4.44027 13.0319L3.0079 7.29918M3.0079 7.29918C3.86638 8.94903 5.10321 10.0506 6.57928 10.4211C8.08099 10.7981 9.84557 10.4151 11.0632 9.45557L3.0079 7.29918ZM16.966 22.5765C17.6136 23.3045 18.2356 24.0614 18.8746 24.8457C18.9087 24.888 18.9426 24.9293 18.9769 24.9709L16.966 22.5765ZM15.0126 20.7323L15.9998 21.7502L15.0126 20.7323ZM10.9689 6.02256C11.1543 6.87457 10.1828 7.71823 9.88055 7.95609C9.11678 8.55749 7.98313 8.80674 7.04435 8.56911L10.9689 6.02256ZM20.5146 23.8346L20.4049 23.7002L11.0633 9.45556C12.4585 8.3565 13.1276 6.95827 12.8361 5.616L12.8361 5.61593C12.5991 4.52715 11.9231 3.74696 11.1594 3.18684C10.6723 2.82956 10.146 2.55917 9.66785 2.35281C11.7603 2.42893 13.4839 3.08637 14.801 4.29382L14.801 4.29382C16.8762 6.19599 16.2864 8.97397 15.9218 10.1109L16.0647 10.1567L15.9218 10.1109C15.871 10.2693 15.8498 10.4238 15.8724 10.5915C15.8948 10.7573 15.9587 10.9262 16.0638 11.1157C16.271 11.4898 16.6574 11.9765 17.2714 12.72L17.2715 12.7201C17.29 12.7424 17.3075 12.7635 17.324 12.7835C17.4048 12.881 17.4622 12.9502 17.4874 12.9845L17.4881 12.9854C18.0142 13.6883 18.5521 14.3837 19.0872 15.0522C19.9342 16.1105 20.8086 17.1228 21.6883 18.1012C21.7739 18.1965 21.8604 18.2945 21.9474 18.393C22.0909 18.5555 22.2357 18.7195 22.38 18.8752L22.3801 18.8754C22.9166 19.4526 23.4866 20.0458 24.079 20.6422C24.0051 20.7607 23.91 20.897 23.8 21.0453C23.4086 21.5712 22.8226 22.2372 22.2352 22.8376C21.6957 23.389 21.1637 23.8762 20.7856 24.1483C20.7697 24.1339 20.7535 24.12 20.737 24.1068L20.5146 23.8347L20.5146 23.8346ZM25.7333 22.3356L25.7334 22.3358C26.946 23.5906 28.2243 24.7866 29.5241 25.9592C30.0229 26.4098 30.524 26.8582 31.0275 27.3037C31.6161 27.8247 32.2057 28.3445 32.7941 28.863C34.0856 30.0014 35.3689 31.1416 36.6053 32.3175L36.7087 32.2088L36.6053 32.3175C36.6669 32.3761 36.7286 32.4346 36.7902 32.4932C39.0041 34.5977 41.2504 36.7331 43.0973 39.1525C44.2702 40.69 44.9556 42.0768 44.9619 43.4305C44.9681 44.7563 44.3223 46.086 42.758 47.5258C36.934 44.9844 32.8656 40.3881 29.1506 35.3826L29.0301 35.472L29.1506 35.3826C28.317 34.2598 27.5019 33.1179 26.6887 31.9742C26.6293 31.8908 26.57 31.8073 26.5107 31.7238C26.1736 31.2492 25.8365 30.7746 25.4986 30.3014L25.3765 30.3886L25.4986 30.3014C24.3845 28.7413 23.2594 27.1966 22.0845 25.7146C22.9083 25.1163 23.8225 24.2059 24.5789 23.3285L24.4653 23.2306L24.5789 23.3285C24.9442 22.9047 25.2698 22.4909 25.5339 22.121C25.5389 22.1265 25.5439 22.132 25.549 22.1375C25.6107 22.2049 25.6741 22.2742 25.7333 22.3356Z" fill="#00B4FF" stroke="#4CACF8" stroke-width="0.3"/>
</svg>
