<svg width="53" height="19" viewBox="0 0 53 19" fill="none" xmlns="http://www.w3.org/2000/svg">
<path d="M0.366961 18.5652C0.293961 18.4912 0.293961 18.4172 0.293961 18.2692V0.879168C0.293961 0.768168 0.330461 0.657168 0.366961 0.583168C0.439961 0.509168 0.512961 0.472168 0.622461 0.472168H2.04596C2.22846 0.472168 2.33796 0.546168 2.44746 0.731168L9.16347 13.5702C9.19997 13.6072 9.23647 13.6442 9.23647 13.6442C9.27297 13.6442 9.27297 13.6072 9.27297 13.5332V0.916168C9.27297 0.805168 9.30947 0.694168 9.34597 0.620168C9.41897 0.546168 9.49197 0.509168 9.60147 0.509168H11.0615C11.171 0.509168 11.244 0.546168 11.317 0.620168C11.39 0.694168 11.39 0.768168 11.39 0.916168V18.3062C11.39 18.4172 11.3535 18.5282 11.317 18.6022C11.244 18.6762 11.171 18.7132 11.0615 18.7132H9.63797C9.45547 18.7132 9.34597 18.6392 9.23647 18.4542L2.52046 5.50417C2.48396 5.43017 2.44746 5.43017 2.44746 5.43017C2.41096 5.43017 2.41096 5.46717 2.41096 5.54117L2.44746 18.2692C2.44746 18.3802 2.41096 18.4912 2.37446 18.5652C2.30146 18.6392 2.22846 18.6762 2.11896 18.6762H0.658961C0.512961 18.6762 0.439961 18.6392 0.366961 18.5652Z" fill="#231F20"/>
<path d="M24.0556 18.3803L23.2891 15.4573C23.2526 15.3833 23.2161 15.3463 23.1796 15.3463H17.0476C17.0111 15.3463 16.9746 15.3833 16.9381 15.4573L16.1351 18.3803C16.0621 18.6023 15.9526 18.6763 15.7701 18.6763H14.2006C13.9451 18.6763 13.8721 18.5283 13.9451 18.2323L18.6901 0.805277C18.7631 0.583277 18.8726 0.509277 19.0551 0.509277H21.0626C21.2451 0.509277 21.3911 0.620277 21.4276 0.805277L26.2091 18.2323C26.2091 18.2693 26.2456 18.3063 26.2456 18.3803C26.2456 18.5653 26.1361 18.6763 25.9536 18.6763H24.3841C24.2381 18.6763 24.0921 18.5653 24.0556 18.3803ZM17.5951 13.3853H22.6321C22.7051 13.3853 22.7416 13.3483 22.7051 13.2373L20.1501 3.54328C20.1501 3.46928 20.1136 3.43228 20.0771 3.43228C20.0406 3.43228 20.0406 3.46928 20.0041 3.54328L17.4856 13.2373C17.4856 13.3483 17.5221 13.3853 17.5951 13.3853Z" fill="#231F20"/>
<path d="M30.6619 18.1581C29.8589 17.6771 29.2019 16.9741 28.7639 16.0491C28.3259 15.1241 28.1069 14.0881 28.1069 12.9041V6.24411C28.1069 5.06011 28.3259 3.98711 28.7639 3.09911C29.2019 2.21111 29.8589 1.50811 30.6619 1.02711C31.4649 0.546109 32.4139 0.287109 33.4724 0.287109C34.5309 0.287109 35.4434 0.546109 36.2829 1.02711C37.0859 1.50811 37.7064 2.17411 38.1809 3.02511C38.6189 3.87611 38.8379 4.83811 38.8379 5.91111V6.05911C38.8379 6.17011 38.8014 6.28111 38.7649 6.35511C38.6919 6.42911 38.6189 6.46611 38.5094 6.46611H37.0494C36.9399 6.46611 36.8669 6.42911 36.7939 6.39211C36.7209 6.35511 36.7209 6.28111 36.7209 6.20711V5.98511C36.7209 4.94911 36.4289 4.09811 35.8449 3.46911C35.2609 2.80311 34.4579 2.50711 33.5089 2.50711C32.5234 2.50711 31.7569 2.84011 31.1364 3.50611C30.5524 4.17211 30.2604 5.09711 30.2604 6.20711V13.0151C30.2604 14.1251 30.5524 15.0501 31.1729 15.7161C31.7934 16.3821 32.5964 16.7151 33.5819 16.7151C34.5674 16.7151 35.2974 16.4191 35.8814 15.8271C36.4289 15.2351 36.7209 14.4211 36.7209 13.3851V11.4241C36.7209 11.3501 36.6844 11.2761 36.6114 11.2761H33.7644C33.6549 11.2761 33.5819 11.2391 33.5089 11.1651C33.4359 11.0911 33.4359 11.0171 33.4359 10.8691V9.53711C33.4359 9.42611 33.4724 9.31511 33.5089 9.24111C33.5819 9.16711 33.6549 9.13011 33.7644 9.13011H38.5094C38.6189 9.13011 38.6919 9.16711 38.7649 9.24111C38.8379 9.31511 38.8379 9.38911 38.8379 9.53711V12.7191C38.8379 14.7171 38.3634 16.2341 37.4144 17.3071C36.4654 18.3801 35.1514 18.8981 33.5089 18.8981C32.4139 18.8981 31.4649 18.6391 30.6619 18.1581Z" fill="#231F20"/>
<path d="M50.7735 18.3803L50.007 15.4573C49.9705 15.3833 49.934 15.3463 49.8975 15.3463H43.7655C43.729 15.3463 43.6925 15.3833 43.656 15.4573L42.8895 18.3803C42.8165 18.6023 42.707 18.6763 42.5245 18.6763H40.955C40.6995 18.6763 40.6265 18.5283 40.6995 18.2323L45.4445 0.805277C45.5175 0.583277 45.627 0.509277 45.8095 0.509277H47.817C47.9995 0.509277 48.1455 0.620277 48.182 0.805277L52.9635 18.2323C52.9635 18.2693 53 18.3063 53 18.3803C53 18.5653 52.8905 18.6763 52.708 18.6763H51.1385C50.956 18.6763 50.81 18.5653 50.7735 18.3803ZM44.2765 13.3853H49.3135C49.3865 13.3853 49.423 13.3483 49.3865 13.2373L46.8315 3.54328C46.8315 3.46928 46.795 3.43228 46.7585 3.43228C46.722 3.43228 46.722 3.46928 46.6855 3.54328L44.167 13.2373C44.2035 13.3483 44.2035 13.3853 44.2765 13.3853Z" fill="#231F20"/>
</svg>
