<svg width="15" height="15" viewBox="0 0 15 15" fill="none" xmlns="http://www.w3.org/2000/svg">
<path d="M7.49988 0C3.35779 0 -0.00012207 3.35791 -0.00012207 7.5C-0.00012207 11.6421 3.35779 15 7.49988 15C11.642 15 14.9999 11.6421 14.9999 7.5C14.9952 3.35986 11.64 0.00463869 7.49988 0ZM13.9863 10.1274L11.8534 10.4955C12.0975 9.6001 12.2294 8.67786 12.2458 7.75H14.4937C14.4655 8.56616 14.2937 9.37097 13.9863 10.1274ZM0.506104 7.75H2.75391C2.77039 8.67786 2.90222 9.6001 3.14636 10.4955L1.01343 10.1274C0.706055 9.37097 0.534302 8.56616 0.506104 7.75ZM1.01343 4.87256L3.14636 4.50452C2.90222 5.3999 2.77039 6.32214 2.75391 7.25H0.506104C0.534302 6.43384 0.706055 5.62903 1.01343 4.87256ZM7.74988 4.01404C8.64819 4.02551 9.54431 4.1073 10.4299 4.25879L11.3124 4.41101C11.5835 5.33362 11.7294 6.28845 11.7461 7.25H7.74988V4.01404ZM10.5151 3.76599C9.60144 3.60986 8.67676 3.52551 7.74988 3.51404V0.514038C9.18311 0.651733 10.4281 1.96399 11.1337 3.87378L10.5151 3.76599ZM7.24988 3.51404C6.323 3.52551 5.39856 3.60986 4.48486 3.76599L3.86609 3.87305C4.57166 1.96277 5.81665 0.650024 7.24988 0.512939V3.51404ZM4.57007 4.25879C5.45557 4.1073 6.35156 4.02551 7.24988 4.01404V7.25H3.25366C3.27039 6.28845 3.41626 5.33362 3.68738 4.41101L4.57007 4.25879ZM3.25366 7.75H7.24988V10.986C6.35156 10.9745 5.45544 10.8927 4.56982 10.7412L3.68738 10.589C3.41626 9.66638 3.27039 8.71155 3.25366 7.75ZM4.48462 11.234C5.39832 11.3904 6.32288 11.4751 7.24988 11.4873V14.4873C5.81665 14.3495 4.57166 13.0372 3.86609 11.1274L4.48462 11.234ZM7.74988 11.4873C8.67676 11.4751 9.6012 11.3904 10.5149 11.234L11.1337 11.127C10.4281 13.0372 9.18311 14.35 7.74988 14.4871V11.4873ZM10.4297 10.7412C9.54419 10.8927 8.64819 10.9745 7.74988 10.986V7.75H11.7461C11.7294 8.71155 11.5835 9.66638 11.3124 10.589L10.4297 10.7412ZM12.2458 7.25C12.2294 6.32214 12.0975 5.3999 11.8534 4.50452L13.9863 4.87256C14.2937 5.62903 14.4655 6.43384 14.4937 7.25H12.2458ZM13.7334 4.32153L11.6888 3.96875C11.3213 2.76965 10.6337 1.69348 9.69983 0.856201C11.446 1.43896 12.8942 2.68298 13.7334 4.32153ZM5.29993 0.856201C4.36609 1.69348 3.67847 2.76965 3.31091 3.96875L1.26636 4.32153C2.10559 2.68298 3.55371 1.43896 5.29993 0.856201ZM1.26636 10.6785L3.31091 11.0312C3.67847 12.2303 4.36609 13.3065 5.29993 14.1438C3.55371 13.561 2.10559 12.317 1.26636 10.6785ZM9.69983 14.1438C10.6337 13.3065 11.3213 12.2303 11.6888 11.0312L13.7334 10.6785C12.8942 12.317 11.446 13.561 9.69983 14.1438Z" fill="#3179FF"/>
</svg>
