<svg width="33" height="28" viewBox="0 0 33 28" fill="none" xmlns="http://www.w3.org/2000/svg">
<path d="M30.1454 0.627723C29.9161 0.223028 29.5499 0 29.1144 0C28.8699 0 28.6231 0.071487 28.4184 0.197888C28.2747 0.265794 28.1527 0.350834 28.0458 0.457853C21.5411 6.96007 16.0079 12.3545 10.1889 17.5078L7.13436 13.7993C6.83788 13.4393 6.50748 13.3637 6.28283 13.3637C6.01276 13.3637 5.73636 13.4732 5.52597 13.6554L5.47625 13.6817C3.82152 14.7456 2.27388 15.6385 0.745898 16.4109C0.338675 16.6163 0.101392 16.9714 0.090367 17.3897C-0.0983219 17.8522 0.0119281 18.34 0.388814 18.7001C1.75577 20.0081 3.02688 21.4537 4.25641 22.8519C5.60062 24.3807 6.99019 25.9618 8.5155 27.3742C8.56957 27.4252 8.62912 27.4708 8.6959 27.5151C8.92251 27.8181 9.2402 27.9907 9.57187 27.9907C9.80774 27.9907 10.0388 27.9066 10.259 27.7404C14.5226 24.5236 18.3261 20.8924 21.1639 18.0886C21.9965 17.2652 22.8331 16.4429 23.6703 15.6206C26.6026 12.7392 29.6347 9.75951 32.5031 6.73529C32.66 6.57034 32.7666 6.37905 32.8201 6.16691C33.0711 5.77752 33.0593 5.3203 32.7855 4.90704C31.795 3.41487 30.9309 2.01491 30.1454 0.627723ZM30.1329 5.51004C28.0201 7.71448 25.806 9.89701 23.6643 12.0091C22.5335 13.1234 21.4036 14.2379 20.2835 15.3591C17.0847 18.5605 13.5899 21.9371 9.6977 24.9635C8.42519 23.7205 7.22937 22.3643 6.07189 21.0517C5.16882 20.0276 4.23689 18.9713 3.26999 17.9693C4.14342 17.4929 5.02978 16.9737 5.96887 16.3893L9.13768 20.2361C9.43458 20.5974 9.76603 20.673 9.99173 20.673C10.2802 20.673 10.569 20.551 10.8081 20.33C10.8928 20.2818 10.9688 20.228 11.039 20.1666C17.2617 14.7147 23.2368 8.86431 28.7724 3.34359C29.1729 4.0086 29.6201 4.72073 30.1329 5.51004Z" fill="#3179FF"/>
</svg>
