<svg width="59" height="61" viewBox="0 0 59 61" fill="none" xmlns="http://www.w3.org/2000/svg">
<path d="M57.9525 0.00225409C49.6014 -0.103456 41.5157 3.52338 34.5465 7.83939C31.0688 9.99327 27.942 12.6201 25.138 15.5883C23.2219 17.6164 20.3112 20.3255 19.8268 23.1813C19.8258 23.1867 19.8274 23.1908 19.8268 23.1962C16.0831 22.5896 11.8236 23.8759 8.12693 24.5466C7.91995 24.5082 7.70917 24.5457 7.52314 24.68C7.4387 24.7165 7.37363 24.7682 7.33617 24.8368C5.54164 26.6967 3.86298 29.2125 2.81985 31.5597C2.73033 31.7613 2.74969 31.9616 2.82524 32.1304C2.67954 32.3323 2.72207 32.6942 3.01635 32.7587C5.91051 33.3894 8.74405 34.2872 11.6233 34.9719C9.09768 37.076 9.50878 40.339 11.5998 42.8637C13.8873 45.6251 18.2173 47.0568 21.5334 45.4594C21.4984 48.2276 22.5292 51.3163 23.6793 53.7159C23.9428 54.2654 24.6062 54.147 24.91 53.7549C26.2506 53.6803 27.3141 52.8175 28.3877 52.0255C30.0359 50.809 32.1586 50.2614 33.6792 48.8894C34.0808 48.5269 33.9068 47.8844 33.5119 47.619C33.5116 46.2508 33.3506 44.8848 33.1459 43.5309C32.9367 42.1469 32.9243 40.4707 32.3269 39.1648C48.3024 33.2599 55.7799 18.1529 58.2756 1.94884C59.2302 1.60473 59.1381 0.0174915 57.9525 0.00225409ZM31.3323 38.2673C31.0098 38.2543 30.7006 38.4083 30.6079 38.7654C30.5536 38.8717 30.5371 38.9895 30.5577 39.1073C30.4089 40.5247 30.9482 41.9297 31.2574 43.3192C31.5894 44.8134 31.9082 46.3156 32.3862 47.7695C31.1301 48.3317 29.9321 49.1132 28.7654 49.8227C27.4474 50.6236 26.4465 52.301 24.9437 52.7934C24.1571 50.0453 22.7666 47.4565 22.5574 44.5553C22.526 44.1217 22.1203 43.9957 21.8384 44.1496C21.6464 43.8731 21.3305 43.7023 20.9594 43.8531C18.2824 44.9429 15.5412 44.0544 13.4699 42.1497C11.3068 40.16 11.2258 37.5658 12.8585 35.2646L12.8601 35.2649C13.6743 35.4363 13.9959 34.2805 13.2032 34.0202C10.2487 33.0507 7.13046 32.4787 4.03631 32.1098C5.84544 30.281 7.23427 27.8471 8.74722 25.7866C8.78023 25.7418 8.78754 25.6964 8.80912 25.651C12.5686 25.8437 16.8142 25.5717 20.3769 24.6771C20.7883 24.5739 20.9569 24.1409 20.8727 23.7797C20.9093 23.7444 20.9477 23.7143 20.9794 23.6679C28.9711 12.0106 42.163 3.33164 56.3808 2.1501C55.2583 9.75518 52.9086 16.8558 48.9935 23.5165C45.0978 30.1439 37.8978 34.736 31.3323 38.2673Z" fill="black"/>
<path d="M45.9869 14.4716C45.8631 13.3751 45.3717 12.2888 44.4774 11.6114C43.7451 11.0568 42.5403 10.7171 41.6394 11.0761C36.6422 10.3755 35.7774 20.0256 41.7658 19.7793C44.4603 19.6685 46.2761 17.0302 45.9869 14.4716ZM41.7658 17.8851C40.0719 18.0924 39.3271 16.7975 39.4144 15.2874C39.4782 14.1827 40.1668 13.0738 41.1106 12.4202C41.1788 12.4793 41.249 12.5377 41.3375 12.5745C42.0337 12.863 42.7403 12.585 43.4171 13.0119C43.9546 13.3513 44.1012 14.123 44.1285 14.7011C44.1993 16.1908 43.3362 17.693 41.7658 17.8851Z" fill="black"/>
<path d="M13.5914 50.3513C13.2908 52.084 12.7095 53.5455 11.3924 54.5423C10.9512 52.7535 10.2683 51.2008 9.11252 49.6523C8.6173 48.9889 7.6056 49.199 7.55036 50.0755C7.32053 53.721 6.44215 56.6346 3.54069 58.7078C2.93119 55.5105 4.21621 52.3351 3.98003 49.0717C3.94448 48.579 3.6137 48.2425 3.11848 48.2102C2.73818 48.1702 2.35724 48.1499 1.97599 48.1438C2.33724 44.6421 4.01114 42.2431 6.81261 39.967C7.14752 39.6946 6.78881 39.1017 6.39168 39.2439C2.05853 40.7898 0.270346 44.6903 0.076386 49.072C0.0554345 49.5431 0.506527 50.0139 0.985872 49.9815C1.40427 49.9326 1.82298 49.9142 2.24201 49.912C2.08329 53.5293 0.729375 57.0669 2.22709 60.562C2.41248 60.9944 3.0715 61.1182 3.44133 60.8804C6.7269 58.7672 8.21859 56.1143 8.87792 52.7065C9.35727 53.8077 9.68964 54.9524 9.89598 56.2152C10.0001 56.852 10.7509 56.9698 11.2324 56.759C13.7514 55.6565 15.2126 53.309 15.2624 50.578C15.2799 49.6358 13.758 49.392 13.5914 50.3513Z" fill="black"/>
</svg>
